<svg width="1150" height="360" viewBox="0 0 1150 360" fill="none" xmlns="../../external.html?link=http://www.w3.org/2000/svg">
<g clip-path="url(#clip0_39_44)">
<g filter="url(#filter0_d_39_44)">
<path d="M616 39.4998C616 40.3282 616.672 40.9998 617.5 40.9998C618.328 40.9998 619 40.3282 619 39.4998C619 38.6713 618.328 37.9998 617.5 37.9998C616.672 37.9998 616 38.6713 616 39.4998Z" fill="white"/>
</g>
<g filter="url(#filter1_d_39_44)">
<path d="M966 279.5C966 280.328 966.672 281 967.5 281C968.328 281 969 280.328 969 279.5C969 278.671 968.328 278 967.5 278C966.672 278 966 278.671 966 279.5Z" fill="white"/>
</g>
<g filter="url(#filter2_d_39_44)">
<path d="M587 295C587 296.657 588.343 298 590 298C591.657 298 593 296.657 593 295C593 293.343 591.657 292 590 292C588.343 292 587 293.343 587 295Z" fill="white"/>
</g>
<g filter="url(#filter3_d_39_44)">
<path d="M785 303C785 304.657 786.343 306 788 306C789.657 306 791 304.657 791 303C791 301.343 789.657 300 788 300C786.343 300 785 301.343 785 303Z" fill="white"/>
</g>
<g filter="url(#filter4_d_39_44)">
<path d="M1119 68.9998C1119 70.6566 1120.34 71.9998 1122 71.9998C1123.66 71.9998 1125 70.6566 1125 68.9998C1125 67.3429 1123.66 65.9998 1122 65.9998C1120.34 65.9998 1119 67.3429 1119 68.9998Z" fill="white"/>
</g>
<g filter="url(#filter5_d_39_44)">
<path d="M893 54.9998C893 56.6566 894.343 57.9998 896 57.9998C897.657 57.9998 899 56.6566 899 54.9998C899 53.3429 897.657 51.9998 896 51.9998C894.343 51.9998 893 53.3429 893 54.9998Z" fill="white"/>
</g>
<g filter="url(#filter6_d_39_44)">
<path d="M697 70.9998C697 73.7612 699.239 75.9998 702 75.9998C704.761 75.9998 707 73.7612 707 70.9998C707 68.2383 704.761 65.9998 702 65.9998C699.239 65.9998 697 68.2383 697 70.9998Z" fill="white"/>
</g>
<g filter="url(#filter7_d_39_44)">
<path d="M1047 311C1047 313.761 1049.24 316 1052 316C1054.76 316 1057 313.761 1057 311C1057 308.238 1054.76 306 1052 306C1049.24 306 1047 308.238 1047 311Z" fill="white"/>
</g>
<g filter="url(#filter8_d_39_44)">
<path d="M93 295C93 298.866 96.134 302 100 302C103.866 302 107 298.866 107 295C107 291.134 103.866 288 100 288C96.134 288 93 291.134 93 295Z" fill="white"/>
</g>
<g filter="url(#filter9_d_39_44)">
<path d="M355 53.9998C355 57.8657 358.134 60.9998 362 60.9998C365.866 60.9998 369 57.8657 369 53.9998C369 50.1338 365.866 46.9998 362 46.9998C358.134 46.9998 355 50.1338 355 53.9998Z" fill="white"/>
</g>
<g filter="url(#filter10_d_39_44)">
<path d="M518 323C518 326.866 521.134 330 525 330C528.866 330 532 326.866 532 323C532 319.134 528.866 316 525 316C521.134 316 518 319.134 518 323Z" fill="white"/>
</g>
<g filter="url(#filter11_d_39_44)">
<path d="M122 29.9998C122 31.6566 123.343 32.9998 125 32.9998C126.657 32.9998 128 31.6566 128 29.9998C128 28.3429 126.657 26.9998 125 26.9998C123.343 26.9998 122 28.3429 122 29.9998Z" fill="white"/>
</g>
<g filter="url(#filter12_d_39_44)">
<path d="M50 64.9998C50 66.6566 51.3431 67.9998 53 67.9998C54.6569 67.9998 56 66.6566 56 64.9998C56 63.3429 54.6569 61.9998 53 61.9998C51.3431 61.9998 50 63.3429 50 64.9998Z" fill="white"/>
</g>
<g filter="url(#filter13_d_39_44)">
<path d="M222 73.9998C222 75.6566 223.343 76.9998 225 76.9998C226.657 76.9998 228 75.6566 228 73.9998C228 72.3429 226.657 70.9998 225 70.9998C223.343 70.9998 222 72.3429 222 73.9998Z" fill="white"/>
</g>
<g filter="url(#filter14_d_39_44)">
<path d="M472 303C472 304.657 473.343 306 475 306C476.657 306 478 304.657 478 303C478 301.343 476.657 300 475 300C473.343 300 472 301.343 472 303Z" fill="white"/>
</g>
<g filter="url(#filter15_d_39_44)">
<path d="M348 317C348 318.657 349.343 320 351 320C352.657 320 354 318.657 354 317C354 315.343 352.657 314 351 314C349.343 314 348 315.343 348 317Z" fill="white"/>
</g>
</g>
<defs>
<filter id="filter0_d_39_44" x="611" y="33.9998" width="13" height="13" filterUnits="userSpaceOnUse" color-interpolation-filters="sRGB">
<feFlood flood-opacity="0" result="BackgroundImageFix"/>
<feColorMatrix in="SourceAlpha" type="matrix" values="0 0 0 0 0 0 0 0 0 0 0 0 0 0 0 0 0 0 127 0" result="hardAlpha"/>
<feOffset dy="1"/>
<feGaussianBlur stdDeviation="2.5"/>
<feComposite in2="hardAlpha" operator="out"/>
<feColorMatrix type="matrix" values="0 0 0 0 1 0 0 0 0 1 0 0 0 0 1 0 0 0 0.45 0"/>
<feBlend mode="normal" in2="BackgroundImageFix" result="effect1_dropShadow_39_44"/>
<feBlend mode="normal" in="SourceGraphic" in2="effect1_dropShadow_39_44" result="shape"/>
</filter>
<filter id="filter1_d_39_44" x="961" y="274" width="13" height="13" filterUnits="userSpaceOnUse" color-interpolation-filters="sRGB">
<feFlood flood-opacity="0" result="BackgroundImageFix"/>
<feColorMatrix in="SourceAlpha" type="matrix" values="0 0 0 0 0 0 0 0 0 0 0 0 0 0 0 0 0 0 127 0" result="hardAlpha"/>
<feOffset dy="1"/>
<feGaussianBlur stdDeviation="2.5"/>
<feComposite in2="hardAlpha" operator="out"/>
<feColorMatrix type="matrix" values="0 0 0 0 1 0 0 0 0 1 0 0 0 0 1 0 0 0 0.45 0"/>
<feBlend mode="normal" in2="BackgroundImageFix" result="effect1_dropShadow_39_44"/>
<feBlend mode="normal" in="SourceGraphic" in2="effect1_dropShadow_39_44" result="shape"/>
</filter>
<filter id="filter2_d_39_44" x="582" y="288" width="16" height="16" filterUnits="userSpaceOnUse" color-interpolation-filters="sRGB">
<feFlood flood-opacity="0" result="BackgroundImageFix"/>
<feColorMatrix in="SourceAlpha" type="matrix" values="0 0 0 0 0 0 0 0 0 0 0 0 0 0 0 0 0 0 127 0" result="hardAlpha"/>
<feOffset dy="1"/>
<feGaussianBlur stdDeviation="2.5"/>
<feComposite in2="hardAlpha" operator="out"/>
<feColorMatrix type="matrix" values="0 0 0 0 1 0 0 0 0 1 0 0 0 0 1 0 0 0 0.45 0"/>
<feBlend mode="normal" in2="BackgroundImageFix" result="effect1_dropShadow_39_44"/>
<feBlend mode="normal" in="SourceGraphic" in2="effect1_dropShadow_39_44" result="shape"/>
</filter>
<filter id="filter3_d_39_44" x="780" y="296" width="16" height="16" filterUnits="userSpaceOnUse" color-interpolation-filters="sRGB">
<feFlood flood-opacity="0" result="BackgroundImageFix"/>
<feColorMatrix in="SourceAlpha" type="matrix" values="0 0 0 0 0 0 0 0 0 0 0 0 0 0 0 0 0 0 127 0" result="hardAlpha"/>
<feOffset dy="1"/>
<feGaussianBlur stdDeviation="2.5"/>
<feComposite in2="hardAlpha" operator="out"/>
<feColorMatrix type="matrix" values="0 0 0 0 1 0 0 0 0 1 0 0 0 0 1 0 0 0 0.45 0"/>
<feBlend mode="normal" in2="BackgroundImageFix" result="effect1_dropShadow_39_44"/>
<feBlend mode="normal" in="SourceGraphic" in2="effect1_dropShadow_39_44" result="shape"/>
</filter>
<filter id="filter4_d_39_44" x="1114" y="61.9998" width="16" height="16" filterUnits="userSpaceOnUse" color-interpolation-filters="sRGB">
<feFlood flood-opacity="0" result="BackgroundImageFix"/>
<feColorMatrix in="SourceAlpha" type="matrix" values="0 0 0 0 0 0 0 0 0 0 0 0 0 0 0 0 0 0 127 0" result="hardAlpha"/>
<feOffset dy="1"/>
<feGaussianBlur stdDeviation="2.5"/>
<feComposite in2="hardAlpha" operator="out"/>
<feColorMatrix type="matrix" values="0 0 0 0 1 0 0 0 0 1 0 0 0 0 1 0 0 0 0.45 0"/>
<feBlend mode="normal" in2="BackgroundImageFix" result="effect1_dropShadow_39_44"/>
<feBlend mode="normal" in="SourceGraphic" in2="effect1_dropShadow_39_44" result="shape"/>
</filter>
<filter id="filter5_d_39_44" x="888" y="47.9998" width="16" height="16" filterUnits="userSpaceOnUse" color-interpolation-filters="sRGB">
<feFlood flood-opacity="0" result="BackgroundImageFix"/>
<feColorMatrix in="SourceAlpha" type="matrix" values="0 0 0 0 0 0 0 0 0 0 0 0 0 0 0 0 0 0 127 0" result="hardAlpha"/>
<feOffset dy="1"/>
<feGaussianBlur stdDeviation="2.5"/>
<feComposite in2="hardAlpha" operator="out"/>
<feColorMatrix type="matrix" values="0 0 0 0 1 0 0 0 0 1 0 0 0 0 1 0 0 0 0.45 0"/>
<feBlend mode="normal" in2="BackgroundImageFix" result="effect1_dropShadow_39_44"/>
<feBlend mode="normal" in="SourceGraphic" in2="effect1_dropShadow_39_44" result="shape"/>
</filter>
<filter id="filter6_d_39_44" x="692" y="61.9998" width="20" height="20" filterUnits="userSpaceOnUse" color-interpolation-filters="sRGB">
<feFlood flood-opacity="0" result="BackgroundImageFix"/>
<feColorMatrix in="SourceAlpha" type="matrix" values="0 0 0 0 0 0 0 0 0 0 0 0 0 0 0 0 0 0 127 0" result="hardAlpha"/>
<feOffset dy="1"/>
<feGaussianBlur stdDeviation="2.5"/>
<feComposite in2="hardAlpha" operator="out"/>
<feColorMatrix type="matrix" values="0 0 0 0 1 0 0 0 0 1 0 0 0 0 1 0 0 0 0.45 0"/>
<feBlend mode="normal" in2="BackgroundImageFix" result="effect1_dropShadow_39_44"/>
<feBlend mode="normal" in="SourceGraphic" in2="effect1_dropShadow_39_44" result="shape"/>
</filter>
<filter id="filter7_d_39_44" x="1042" y="302" width="20" height="20" filterUnits="userSpaceOnUse" color-interpolation-filters="sRGB">
<feFlood flood-opacity="0" result="BackgroundImageFix"/>
<feColorMatrix in="SourceAlpha" type="matrix" values="0 0 0 0 0 0 0 0 0 0 0 0 0 0 0 0 0 0 127 0" result="hardAlpha"/>
<feOffset dy="1"/>
<feGaussianBlur stdDeviation="2.5"/>
<feComposite in2="hardAlpha" operator="out"/>
<feColorMatrix type="matrix" values="0 0 0 0 1 0 0 0 0 1 0 0 0 0 1 0 0 0 0.45 0"/>
<feBlend mode="normal" in2="BackgroundImageFix" result="effect1_dropShadow_39_44"/>
<feBlend mode="normal" in="SourceGraphic" in2="effect1_dropShadow_39_44" result="shape"/>
</filter>
<filter id="filter8_d_39_44" x="88" y="284" width="24" height="24" filterUnits="userSpaceOnUse" color-interpolation-filters="sRGB">
<feFlood flood-opacity="0" result="BackgroundImageFix"/>
<feColorMatrix in="SourceAlpha" type="matrix" values="0 0 0 0 0 0 0 0 0 0 0 0 0 0 0 0 0 0 127 0" result="hardAlpha"/>
<feOffset dy="1"/>
<feGaussianBlur stdDeviation="2.5"/>
<feComposite in2="hardAlpha" operator="out"/>
<feColorMatrix type="matrix" values="0 0 0 0 1 0 0 0 0 1 0 0 0 0 1 0 0 0 0.45 0"/>
<feBlend mode="normal" in2="BackgroundImageFix" result="effect1_dropShadow_39_44"/>
<feBlend mode="normal" in="SourceGraphic" in2="effect1_dropShadow_39_44" result="shape"/>
</filter>
<filter id="filter9_d_39_44" x="350" y="42.9998" width="24" height="24" filterUnits="userSpaceOnUse" color-interpolation-filters="sRGB">
<feFlood flood-opacity="0" result="BackgroundImageFix"/>
<feColorMatrix in="SourceAlpha" type="matrix" values="0 0 0 0 0 0 0 0 0 0 0 0 0 0 0 0 0 0 127 0" result="hardAlpha"/>
<feOffset dy="1"/>
<feGaussianBlur stdDeviation="2.5"/>
<feComposite in2="hardAlpha" operator="out"/>
<feColorMatrix type="matrix" values="0 0 0 0 1 0 0 0 0 1 0 0 0 0 1 0 0 0 0.45 0"/>
<feBlend mode="normal" in2="BackgroundImageFix" result="effect1_dropShadow_39_44"/>
<feBlend mode="normal" in="SourceGraphic" in2="effect1_dropShadow_39_44" result="shape"/>
</filter>
<filter id="filter10_d_39_44" x="513" y="312" width="24" height="24" filterUnits="userSpaceOnUse" color-interpolation-filters="sRGB">
<feFlood flood-opacity="0" result="BackgroundImageFix"/>
<feColorMatrix in="SourceAlpha" type="matrix" values="0 0 0 0 0 0 0 0 0 0 0 0 0 0 0 0 0 0 127 0" result="hardAlpha"/>
<feOffset dy="1"/>
<feGaussianBlur stdDeviation="2.5"/>
<feComposite in2="hardAlpha" operator="out"/>
<feColorMatrix type="matrix" values="0 0 0 0 1 0 0 0 0 1 0 0 0 0 1 0 0 0 0.45 0"/>
<feBlend mode="normal" in2="BackgroundImageFix" result="effect1_dropShadow_39_44"/>
<feBlend mode="normal" in="SourceGraphic" in2="effect1_dropShadow_39_44" result="shape"/>
</filter>
<filter id="filter11_d_39_44" x="117" y="22.9998" width="16" height="16" filterUnits="userSpaceOnUse" color-interpolation-filters="sRGB">
<feFlood flood-opacity="0" result="BackgroundImageFix"/>
<feColorMatrix in="SourceAlpha" type="matrix" values="0 0 0 0 0 0 0 0 0 0 0 0 0 0 0 0 0 0 127 0" result="hardAlpha"/>
<feOffset dy="1"/>
<feGaussianBlur stdDeviation="2.5"/>
<feComposite in2="hardAlpha" operator="out"/>
<feColorMatrix type="matrix" values="0 0 0 0 1 0 0 0 0 1 0 0 0 0 1 0 0 0 0.45 0"/>
<feBlend mode="normal" in2="BackgroundImageFix" result="effect1_dropShadow_39_44"/>
<feBlend mode="normal" in="SourceGraphic" in2="effect1_dropShadow_39_44" result="shape"/>
</filter>
<filter id="filter12_d_39_44" x="45" y="57.9998" width="16" height="16" filterUnits="userSpaceOnUse" color-interpolation-filters="sRGB">
<feFlood flood-opacity="0" result="BackgroundImageFix"/>
<feColorMatrix in="SourceAlpha" type="matrix" values="0 0 0 0 0 0 0 0 0 0 0 0 0 0 0 0 0 0 127 0" result="hardAlpha"/>
<feOffset dy="1"/>
<feGaussianBlur stdDeviation="2.5"/>
<feComposite in2="hardAlpha" operator="out"/>
<feColorMatrix type="matrix" values="0 0 0 0 1 0 0 0 0 1 0 0 0 0 1 0 0 0 0.45 0"/>
<feBlend mode="normal" in2="BackgroundImageFix" result="effect1_dropShadow_39_44"/>
<feBlend mode="normal" in="SourceGraphic" in2="effect1_dropShadow_39_44" result="shape"/>
</filter>
<filter id="filter13_d_39_44" x="217" y="66.9998" width="16" height="16" filterUnits="userSpaceOnUse" color-interpolation-filters="sRGB">
<feFlood flood-opacity="0" result="BackgroundImageFix"/>
<feColorMatrix in="SourceAlpha" type="matrix" values="0 0 0 0 0 0 0 0 0 0 0 0 0 0 0 0 0 0 127 0" result="hardAlpha"/>
<feOffset dy="1"/>
<feGaussianBlur stdDeviation="2.5"/>
<feComposite in2="hardAlpha" operator="out"/>
<feColorMatrix type="matrix" values="0 0 0 0 1 0 0 0 0 1 0 0 0 0 1 0 0 0 0.45 0"/>
<feBlend mode="normal" in2="BackgroundImageFix" result="effect1_dropShadow_39_44"/>
<feBlend mode="normal" in="SourceGraphic" in2="effect1_dropShadow_39_44" result="shape"/>
</filter>
<filter id="filter14_d_39_44" x="467" y="296" width="16" height="16" filterUnits="userSpaceOnUse" color-interpolation-filters="sRGB">
<feFlood flood-opacity="0" result="BackgroundImageFix"/>
<feColorMatrix in="SourceAlpha" type="matrix" values="0 0 0 0 0 0 0 0 0 0 0 0 0 0 0 0 0 0 127 0" result="hardAlpha"/>
<feOffset dy="1"/>
<feGaussianBlur stdDeviation="2.5"/>
<feComposite in2="hardAlpha" operator="out"/>
<feColorMatrix type="matrix" values="0 0 0 0 1 0 0 0 0 1 0 0 0 0 1 0 0 0 0.45 0"/>
<feBlend mode="normal" in2="BackgroundImageFix" result="effect1_dropShadow_39_44"/>
<feBlend mode="normal" in="SourceGraphic" in2="effect1_dropShadow_39_44" result="shape"/>
</filter>
<filter id="filter15_d_39_44" x="343" y="310" width="16" height="16" filterUnits="userSpaceOnUse" color-interpolation-filters="sRGB">
<feFlood flood-opacity="0" result="BackgroundImageFix"/>
<feColorMatrix in="SourceAlpha" type="matrix" values="0 0 0 0 0 0 0 0 0 0 0 0 0 0 0 0 0 0 127 0" result="hardAlpha"/>
<feOffset dy="1"/>
<feGaussianBlur stdDeviation="2.5"/>
<feComposite in2="hardAlpha" operator="out"/>
<feColorMatrix type="matrix" values="0 0 0 0 1 0 0 0 0 1 0 0 0 0 1 0 0 0 0.45 0"/>
<feBlend mode="normal" in2="BackgroundImageFix" result="effect1_dropShadow_39_44"/>
<feBlend mode="normal" in="SourceGraphic" in2="effect1_dropShadow_39_44" result="shape"/>
</filter>
<clipPath id="clip0_39_44">
<rect width="360" height="1150" fill="white" transform="matrix(0 1 -1 0 1150 -0.000244141)"/>
</clipPath>
</defs>
</svg>
