<?xml version="1.0" encoding="UTF-8"?>
<svg fill="none" viewBox="0 0 20 35" xmlns="http://www.w3.org/2000/svg">
<path d="m19.582 17.898c0-0.2474-0.0521-0.4752-0.1562-0.6836-0.0912-0.2213-0.2279-0.4231-0.4102-0.6054l-15.469-15.156c-0.35157-0.33854-0.78126-0.50781-1.2891-0.50781-0.32552 0-0.625 0.078128-0.89843 0.23438-0.27344 0.15625-0.48829 0.37109-0.64454 0.64453-0.15625 0.26042-0.23438 0.55989-0.23438 0.89844 0 0.48177 0.16927 0.90494 0.50781 1.2695l14.219 13.906-14.219 13.906c-0.33854 0.3646-0.50781 0.7877-0.50781 1.2695 0 0.3386 0.078125 0.638 0.23438 0.8985 0.15625 0.2734 0.3711 0.4882 0.64454 0.6445 0.27343 0.1562 0.57291 0.2344 0.89843 0.2344 0.50781 0 0.9375-0.1758 1.2891-0.5274l15.469-15.137c0.1823-0.1823 0.319-0.3776 0.4102-0.5859 0.1041-0.2214 0.1562-0.4558 0.1562-0.7032z" fill="#95959D"/>
</svg>
