<svg width="134" height="40" fill="none" xmlns="http://www.w3.org/2000/svg">
    <rect width="40" height="40" rx="20" fill="url(#a)"/>
    <path d="M11.25 16.337v7.432a4.129 4.129 0 0 0 4.129 4.129h9.91a4.13 4.13 0 0 0 3.784-2.478h-4.198a3.716 3.716 0 0 1-3.716-3.716v-3.303a3.716 3.716 0 0 1 3.716-3.716h4.198a4.13 4.13 0 0 0-3.785-2.477h-9.91a4.129 4.129 0 0 0-4.128 4.129Z" fill="#fff"/>
    <path fill-rule="evenodd" clip-rule="evenodd" d="M22.81 18.401v3.303c0 1.14.925 2.065 2.065 2.065h4.13c1.14 0 2.064-.924 2.064-2.065v-3.303c0-1.14-.925-2.064-2.065-2.064h-4.129c-1.14 0-2.064.924-2.064 2.064Zm4.13 1.652a1.239 1.239 0 1 1-2.478 0 1.239 1.239 0 0 1 2.478 0Z" fill="#fff"/>
    <path d="M54.13 31.375 47.5 8.625h4.55l4.388 17.485L60.89 8.625h5.005L70.38 26.11l4.388-17.485h4.55l-6.566 22.75h-4.68l-4.647-16.673-4.68 16.673H54.13ZM87.733 20.845c0-1.853-1.268-2.99-3.25-2.99-1.788 0-3.055 1.105-3.25 2.86l-3.64-.65c.52-3.25 3.412-5.33 6.89-5.33 4.29 0 7.215 2.307 7.215 6.662v9.978h-3.965v-2.373c-.91 1.593-2.893 2.633-4.908 2.633-3.217 0-5.46-2.08-5.46-4.875 0-3.218 2.438-4.94 7.313-5.46l3.055-.293v-.162ZM81.33 26.63c0 1.137.91 1.982 2.405 1.982 2.535 0 3.998-1.917 3.998-4.322v-.358l-3.12.358c-2.178.26-3.283 1.17-3.283 2.34ZM94.03 31.375V8.365h4.096v23.01H94.03ZM100.426 31.375V8.365h4.095v23.01h-4.095ZM105.943 23.185c0-4.258 2.665-8.45 8.093-8.45 5.525 0 8.222 4.095 8.222 7.897 0 .585-.032 1.3-.065 1.625h-12.155c.358 2.47 1.95 3.933 4.29 3.933 1.918 0 3.283-.91 3.705-2.503l3.835 1.04c-.91 3.088-3.77 4.908-7.605 4.908-5.427 0-8.32-4.193-8.32-8.45Zm4.193-1.918h7.735c-.195-1.95-1.463-3.412-3.835-3.412-2.015 0-3.445 1.202-3.9 3.412ZM133.121 31.212c-.813.293-1.69.423-2.633.423-3.315 0-5.785-1.788-5.785-5.623V18.44h-2.762v-3.445h2.762v-4.81h4.095v4.81h4.128v3.445h-4.128v7.182c0 1.56.845 2.405 2.113 2.405.617 0 1.332-.097 1.917-.39l.293 3.575Z" fill="#000"/>
    <defs>
        <linearGradient id="a" x1="20" y1="0" x2="20" y2="40" gradientUnits="userSpaceOnUse">
            <stop stop-color="#60BFEF"/>
            <stop offset="1" stop-color="#0094FE"/>
        </linearGradient>
    </defs>
</svg>
