<svg width="40" height="40" fill="none" xmlns="http://www.w3.org/2000/svg"><rect width="40" height="40" rx="20" fill="url(#paint0_linear_437_1361)"/><path fill-rule="evenodd" clip-rule="evenodd" d="M11.217 18.76c0-2.19 0-3.287.427-4.124a3.914 3.914 0 0 1 1.71-1.71c.837-.426 1.933-.426 4.124-.426h5.087c2.192 0 3.287 0 4.124.426a3.914 3.914 0 0 1 1.71 1.71c.122.24.21.499.271.799h-3.105c-.91 0-1.364 0-1.74.082a3.587 3.587 0 0 0-2.743 2.742C21 18.636 21 19.091 21 20c0 .91 0 1.365.082 1.742a3.587 3.587 0 0 0 2.742 2.742c.377.082.832.082 1.741.082h3.105c-.062.3-.149.56-.27.798a3.913 3.913 0 0 1-1.71 1.71c-.838.427-1.933.427-4.125.427h-5.087c-2.191 0-3.287 0-4.124-.427a3.913 3.913 0 0 1-1.71-1.71c-.427-.837-.427-1.932-.427-4.124v-2.478zM22.304 20c0-1.217 0-1.825.226-2.295.225-.466.6-.842 1.066-1.066.47-.226 1.078-.226 2.295-.226h1.305c1.216 0 1.825 0 2.294.226.466.224.842.6 1.067 1.066.226.47.226 1.078.226 2.295 0 1.217 0 1.825-.227 2.295-.224.465-.6.841-1.066 1.066-.47.226-1.077.226-2.294.226H25.89c-1.217 0-1.825 0-2.294-.226a2.283 2.283 0 0 1-1.067-1.066c-.226-.47-.226-1.078-.226-2.295zm4.24 0a1.304 1.304 0 1 1-2.61 0 1.304 1.304 0 0 1 2.61 0z" fill="#fff"/><defs><linearGradient id="paint0_linear_437_1361" x1="20" x2="20" y2="40" gradientUnits="userSpaceOnUse"><stop stop-color="#60BFEF"/><stop offset="1" stop-color="#0094FE"/></linearGradient></defs></svg>